<?xml version="1.0" standalone="no"?><!DOCTYPE svg PUBLIC "-//W3C//DTD SVG 1.1//EN" "http://www.w3.org/Graphics/SVG/1.1/DTD/svg11.dtd"><svg t="1650444887584" class="icon" viewBox="0 0 1024 1024" version="1.1" xmlns="http://www.w3.org/2000/svg" p-id="2670" xmlns:xlink="http://www.w3.org/1999/xlink" width="128" height="128"><defs><style type="text/css">@font-face { font-family: feedback-iconfont; src: url("//at.alicdn.com/t/font_1031158_u69w8yhxdu.woff2?t=1630033759944") format("woff2"), url("//at.alicdn.com/t/font_1031158_u69w8yhxdu.woff?t=1630033759944") format("woff"), url("//at.alicdn.com/t/font_1031158_u69w8yhxdu.ttf?t=1630033759944") format("truetype"); }
</style></defs><path d="M625.294222 493.710222c6.997333-8.533333 13.482667-17.379556 18.119111-23.466666 17.749333-2.133333 32.824889-2.759111 47.132445-5.973334 56.206222-12.515556 99.925333-42.211556 136.220444-80.782222 63.573333-67.470222 90.794667-146.460444 91.050667-233.415111 0.056889-13.710222-9.699556-21.788444-25.884445-21.816889-37.575111-0.170667-75.150222-0.113778-112.753777-0.113778h-10.979556l5.688889-85.219555h13.226667c4.494222-0.056889 9.045333 0.085333 13.539555-0.369778 11.036444-0.967111 19.256889-8.078222 20.992-17.92a19.825778 19.825778 0 0 0-13.653333-21.930667 51.854222 51.854222 0 0 0-16.440889-2.190222C603.221333 0.398222 414.947556 0.398222 226.616889 0.398222h-5.632c-14.307556 0.625778-24.746667 9.557333-24.661333 21.333334 0 11.719111 10.325333 20.508444 24.832 20.963555 7.708444 0.312889 15.473778 0.113778 23.296 0.113778l5.518222 85.333333H237.795556l-109.397334 0.056889c-19.456 0.056889-28.046222 7.850667-28.046222 25.031111 0 32.768 4.437333 64.995556 14.051556 96.682667 22.528 74.183111 65.137778 136.931556 136.590222 182.328889 36.323556 23.125333 76.344889 38.058667 122.055111 36.266666 10.752 13.340444 21.219556 26.680889 32.113778 39.822223 10.353778 12.401778 25.372444 23.267556 30.634666 37.12 5.319111 14.051556 1.137778 30.919111 1.137778 46.563555v1.024c1.080889 5.404444-1.735111 7.850667-7.310222 10.353778-26.453333 11.861333-40.248889 31.089778-40.618667 57.543111v20.536889h-14.876444c-34.588444 0.056889-69.176889-0.142222-103.708445 0.170667-15.644444 0.142222-25.6 8.817778-25.656889 21.248-0.056889 12.430222 9.813333 20.906667 25.486223 21.504 7.054222 0.284444 14.108444 0.056889 21.617777 0.056889v255.601777c-8.988444 0-17.180444-0.312889-25.400888 0.056889-9.557333 0.398222-17.777778 4.835556-19.456 12.714667-1.479111 6.741333 0.711111 14.620444 3.271111 21.418667 1.28 3.356444 6.997333 5.404444 10.723555 8.106666h496.270222c0.398222-0.512 0.768-1.137778 1.28-1.479111 13.368889-7.452444 17.720889-15.729778 13.994667-26.368-3.328-9.557333-12.117333-14.392889-26.538667-14.563555l-19.768888-0.056889v-255.431111c6.968889 0 13.283556 0.113778 19.569777 0 17.351111-0.341333 27.704889-8.590222 27.562667-21.703112-0.113778-13.027556-10.524444-21.105778-28.074667-21.219555-25.941333-0.142222-51.911111 0-77.767111 0H629.191111c0-7.879111 0.113778-14.762667 0-21.674667-0.284444-20.622222-8.476444-39.936-28.672-49.152-19.854222-9.045333-20.736-21.304889-19.313778-36.778666A18.232889 18.232889 0 0 0 581.12 568.888889c-2.901333-18.204444 2.503111-33.223111 18.460444-46.136889 10.268444-8.192 17.521778-19.057778 25.713778-29.070222zM867.982222 171.235556c11.605333 99.754667-98.304 242.887111-194.104889 251.875555 45.994667-79.815111 73.073778-164.181333 87.836445-251.875555h106.268444zM342.243556 425.472c-16.554667-6.542222-33.934222-11.747556-49.464889-19.854222-54.556444-28.216889-90.936889-70.542222-115.370667-121.372445a294.030222 294.030222 0 0 1-28.245333-112.867555H256.568889c14.848 87.381333 41.642667 171.946667 87.665778 251.249778l-1.991111 2.844444z m334.904888 299.605333c0.199111 3.413333 0.568889 6.314667 0.568889 9.301334 0 77.767111-0.113778 155.591111 0.284445 233.358222 0.056889 9.358222-2.275556 12.458667-13.539556 12.401778-104.419556-0.398222-208.924444-0.256-313.429333-0.256-2.958222 0-5.859556-0.284444-9.585778-0.568889v-254.293334h335.701333v0.056889z m-95.857777-60.928v16.611556H438.044444c-0.568889-1.080889-0.853333-1.336889-0.853333-1.621333-1.621333-28.672-1.109333-41.955556 42.638222-40.163556 24.376889 1.024 48.810667 0.085333 73.216 0.199111 19.427556 0.113778 28.103111 7.822222 28.216889 24.974222z m-95.857778-68.152889V554.666667h47.246222v41.329777h-47.246222z m71.338667-93.752888a27.079111 27.079111 0 0 1-22.897778 9.386666c-16.867556-0.853333-33.848889-0.768-50.688-0.056889a24.888889 24.888889 0 0 1-21.020445-8.618666 545.223111 545.223111 0 0 1-90.368-129.223111C328.647111 289.28 305.351111 200.334222 296.931556 108.316444c-1.735111-19.569778-2.702222-39.196444-3.982223-58.766222-0.113778-1.621333 0.142222-3.328 0.284445-5.831111h432.298666c-0.824889 16.099556-1.137778 32-2.446222 47.786667-6.912 85.276444-25.031111 168.533333-60.501333 248.32-26.055111 58.823111-59.790222 113.720889-105.813333 162.417778z m-138.581334-267.605334c-11.207111-41.244444-16.867556-83.626667-24.576-125.496889-3.128889-16.981333-12.259556-25.002667-28.16-23.096889-14.734222 1.706667-22.243556 12.629333-19.996444 28.416 2.048 14.136889 3.584 28.387556 5.831111 42.496 12.942222 81.550222 37.603556 160.056889 82.062222 232.704 14.990222 24.462222 33.536 47.217778 51.057778 70.371556 6.229333 8.248889 16.156444 10.723556 26.965333 7.452444 10.325333-3.157333 15.530667-9.955556 16.355556-22.186666-1.137778-2.389333-2.332444-7.452444-5.575111-11.235556-51.342222-59.676444-84.337778-127.175111-103.964445-199.424zM415.004444 894.577778c62.407111 0.056889 124.785778 0.056889 187.164445-0.056889 18.005333 0 26.936889-7.907556 27.022222-23.950222 0.199111-26.254222 0.199111-52.536889 0.085333-78.791111-0.056889-17.265778-8.817778-24.888889-28.216888-24.945778H508.586667c-30.862222 0-61.696-0.085333-92.501334 0-18.033778 0.113778-26.965333 7.936-27.079111 24.007111-0.199111 26.936889-0.199111 53.873778 0 80.782222 0.142222 14.592 9.614222 22.897778 25.998222 22.954667z m22.698667-84.878222h142.933333v41.642666h-142.933333v-41.642666z" p-id="2671"></path></svg>