<?xml version="1.0" standalone="no"?><!DOCTYPE svg PUBLIC "-//W3C//DTD SVG 1.1//EN" "http://www.w3.org/Graphics/SVG/1.1/DTD/svg11.dtd"><svg t="1650036902243" class="icon" viewBox="0 0 1024 1024" version="1.1" xmlns="http://www.w3.org/2000/svg" p-id="5326" xmlns:xlink="http://www.w3.org/1999/xlink" width="128" height="128"><defs><style type="text/css">@font-face { font-family: feedback-iconfont; src: url("//at.alicdn.com/t/font_1031158_u69w8yhxdu.woff2?t=1630033759944") format("woff2"), url("//at.alicdn.com/t/font_1031158_u69w8yhxdu.woff?t=1630033759944") format("woff"), url("//at.alicdn.com/t/font_1031158_u69w8yhxdu.ttf?t=1630033759944") format("truetype"); }
</style></defs><path d="M233.1 98.5H117.3C85.2 101 61 129.7 63.1 162.9v697.8c-2.2 33.1 22 61.9 54.2 64.3h115.8c32.1-2.5 56.3-31.2 54.2-64.3V162.9c2.1-33.2-22-61.9-54.2-64.4z m22.6 155.1h-161v-68.2h161v68.2zM959 811L783.7 263.6c-7.8-32.3-39.4-52-70.7-44.2l-110.6 36.4c-17.8 6.7-30.7 22.7-33.8 41.9V162.9c2.2-33.1-22-61.9-54.2-64.3H398.6c-32.1 2.5-56.3 31.2-54.2 64.3v697.8c-2.2 33.1 22 61.9 54.2 64.3h115.8c32.1-2.5 56.3-31.2 54.2-64.3V328c-0.1 2.3-0.1 4.7 0 7l171.5 547.4c7.8 32.3 39.4 52 70.7 44.2l110.6-36.4c29.4-12.5 43.7-46.9 32.3-77.5l5.3-1.7zM537 253.6H376v-68.2h161v68.2z" p-id="5327"></path></svg>