<?xml version="1.0" standalone="no"?><!DOCTYPE svg PUBLIC "-//W3C//DTD SVG 1.1//EN" "http://www.w3.org/Graphics/SVG/1.1/DTD/svg11.dtd"><svg t="1650037384094" class="icon" viewBox="0 0 1024 1024" version="1.1" xmlns="http://www.w3.org/2000/svg" p-id="8163" xmlns:xlink="http://www.w3.org/1999/xlink" width="128" height="128"><defs><style type="text/css">@font-face { font-family: feedback-iconfont; src: url("//at.alicdn.com/t/font_1031158_u69w8yhxdu.woff2?t=1630033759944") format("woff2"), url("//at.alicdn.com/t/font_1031158_u69w8yhxdu.woff?t=1630033759944") format("woff"), url("//at.alicdn.com/t/font_1031158_u69w8yhxdu.ttf?t=1630033759944") format("truetype"); }
</style></defs><path d="M827.392 241.664H155.648c-35.328 0-64 28.672-64 64v497.664c0 35.328 28.672 64 64 64h672.256c35.328 0 64-28.672 64-64V305.664c0-35.328-29.184-64-64.512-64z m-224.256 141.312h168.448c10.24 0 18.432 8.192 18.432 18.432s-8.192 18.432-18.432 18.432h-168.448c-10.24 0-18.432-8.192-18.432-18.432s8.192-18.432 18.432-18.432z m0 157.184h168.448c10.24 0 18.432 8.192 18.432 18.432s-8.192 18.432-18.432 18.432h-168.448c-10.24 0-18.432-8.192-18.432-18.432s8.192-18.432 18.432-18.432zM237.568 442.368c5.12-11.776 12.288-22.528 21.504-31.232 9.216-9.216 19.968-16.384 32.256-20.992 24.064-9.728 51.2-9.728 75.264 0 11.776 4.608 23.04 11.776 31.744 20.992 9.216 9.216 16.384 19.456 21.504 31.232 10.24 23.552 10.24 50.688 0 74.24-5.12 11.776-12.288 22.528-21.504 31.232-9.216 9.216-19.968 16.384-31.744 20.992-24.064 9.728-51.2 9.728-75.264 0-11.776-5.12-23.04-11.776-32.256-20.992-28.672-27.136-36.864-69.12-21.504-105.472z m-71.68 256c0-55.808 48.64-106.496 99.328-130.048 38.4 25.088 88.064 25.088 126.976 0 50.688 23.552 99.328 74.24 99.84 130.048-0.512 59.904-326.144 60.416-326.144 0z m605.696 27.648h-168.448c-10.24 0-18.432-8.192-18.432-18.432s8.192-18.432 18.432-18.432h168.448c10.24 0 18.432 8.192 18.432 18.432-0.512 9.728-8.192 18.432-18.432 18.432z" p-id="8164"></path></svg>