<?xml version="1.0" standalone="no"?><!DOCTYPE svg PUBLIC "-//W3C//DTD SVG 1.1//EN" "http://www.w3.org/Graphics/SVG/1.1/DTD/svg11.dtd"><svg t="1649054834729" class="icon" viewBox="0 0 1024 1024" version="1.1" xmlns="http://www.w3.org/2000/svg" p-id="11950" xmlns:xlink="http://www.w3.org/1999/xlink" width="128" height="128"><defs><style type="text/css">@font-face { font-family: feedback-iconfont; src: url("//at.alicdn.com/t/font_1031158_u69w8yhxdu.woff2?t=1630033759944") format("woff2"), url("//at.alicdn.com/t/font_1031158_u69w8yhxdu.woff?t=1630033759944") format("woff"), url("//at.alicdn.com/t/font_1031158_u69w8yhxdu.ttf?t=1630033759944") format("truetype"); }
</style></defs><path d="M191.661 910.23V113.77h487.757l21.05 20.75 0.268-0.002 88.87 86.953v0.921l42.732 42.124V910.23H191.661z m405.651-711.355H276.918v625.261h469.955V329.089H597.312V198.875z m64.099-43.975v109.616h128.195L661.411 154.9zM340.916 673.467h341.859v86.098H340.916v-86.098z m0-129.139h341.859v86.094H340.916v-86.094z m0-129.143h341.859v86.096H340.916v-86.096z m56.852-63.6c-28.889 0-52.31-23.592-52.31-52.695s23.421-52.699 52.31-52.699c28.893 0 52.314 23.596 52.314 52.699 0 29.103-23.422 52.695-52.314 52.695zM832.339 113.77v5.481l-0.878-5.481h0.878z" p-id="11951"></path></svg>