<?xml version="1.0" standalone="no"?><!DOCTYPE svg PUBLIC "-//W3C//DTD SVG 1.1//EN" "http://www.w3.org/Graphics/SVG/1.1/DTD/svg11.dtd"><svg t="1649054509516" class="icon" viewBox="0 0 1024 1024" version="1.1" xmlns="http://www.w3.org/2000/svg" p-id="8447" xmlns:xlink="http://www.w3.org/1999/xlink" width="128" height="128"><defs><style type="text/css">@font-face { font-family: feedback-iconfont; src: url("//at.alicdn.com/t/font_1031158_u69w8yhxdu.woff2?t=1630033759944") format("woff2"), url("//at.alicdn.com/t/font_1031158_u69w8yhxdu.woff?t=1630033759944") format("woff"), url("//at.alicdn.com/t/font_1031158_u69w8yhxdu.ttf?t=1630033759944") format("truetype"); }
</style></defs><path d="M608.816932 1024c-51.599817 0-145.999482-13.599952-218.599225-28.399899-131.899532-26.799905-188.399332-31.599888-275.099025-22.999919-1.899993 0.199999-3.799987 0.299999-5.69998 0.299999-34.399878 0-55.499803-31.199889-60.399786-42.899848-19.999929-47.299832-32.399885-100.599643-39.199861-137.099514-3.499988-18.299935-6.299978-36.79987-8.099971-52.099815-2.79999-24.499913-1.799994-29.799894 0.299999-35.199875 4.099985-10.499963 12.399956-18.699934 22.999918-22.799919 3.199989-1.399995 6.699976-2.099993 10.199964-2.199993 96.899656-1.099996 110.599608-10.699962 199.099294-72.999741l2.799991-1.999993c1.599994-1.099996 3.299988-2.099993 5.099981-2.79999C285.01808 585.001556 326.117934 576.001588 368.017785 575.201591c48.999826-0.899997 99.699647 9.999965 151.099465 32.299885 62.09978 26.999904 159.699434 22.099922 160.69943 21.999922 1.299995-0.1 2.499991-0.1 3.799987 0 24.599913 2.199992 37.399867 12.999954 43.699845 21.799923 7.699973 10.699962 10.599962 24.099915 7.899972 36.999869-0.399999 1.599994-0.899997 3.199989-1.499995 4.699983-22.299921 51.599817-83.999702 78.89972-183.39935 81.199713-39.699859 0.599998-79.399719-1.899993-118.699579-7.499974 81.599711 52.799813 180.59936 95.099663 318.498871 32.299886 28.899898-13.199953 54.299808-23.699916 76.799728-32.999883 5.999979-2.499991 11.799958-4.899983 17.299938-7.099975 40.899855-17.099939 75.099734-27.499903 101.69964-30.899891 23.799916-2.999989 42.19985-0.699998 55.999801 6.999975 17.599938 9.799965 21.199925 24.599913 21.899923 28.899898 0.699998 4.099985 0.299999 8.299971-0.899997 12.299956-2.099993 6.599977-6.499977 20.399928-55.499803 60.899785-33.199882 26.999904-67.69976 52.299815-103.499633 75.699731-133.299527 87.999688-204.699274 106.799621-235.399166 110.19961-6.599977 0.699998-13.199953 0.999996-19.69993 0.999996zM187.018427 915.400385c58.399793 0 116.699586 8.299971 213.699243 27.999901 88.399687 17.999936 189.899327 30.299893 221.699214 26.699905 42.19985-4.599984 118.999578-41.099854 205.499271-97.599654 55.599803-36.299871 97.899653-69.499754 122.099567-90.999677-16.89994 2.499991-43.799845 9.399967-85.499697 26.799905-5.499981 2.299992-11.39996 4.699983-17.399938 7.199974-21.999922 9.199967-46.999833 19.599931-75.099734 32.299886-80.799714 36.79987-160.69943 45.399839-237.499158 25.599909-63.799774-16.499942-114.199595-48.799827-156.399445-77.799724-2.79999-1.899993-5.099982-4.299985-6.999976-7.099975-3.199989-4.699983-18.499934-29.499895-5.299981-53.099812 9.499966-16.99994 28.799898-24.899912 57.399797-23.699916 1.199996 0 2.399991 0.199999 3.599987 0.399999 0.599998 0.1 59.799788 10.399963 122.799565 8.899968 38.599863-0.999996 102.799636-7.399974 127.999546-37.799866-22.49992 0.799997-114.399594 1.899993-179.899362-26.599906-81.099713-35.199875-154.899451-36.999869-232.299177-5.49998l-0.399998 0.299999c-85.999695 60.499786-112.6996 79.299719-210.499254 82.399708 3.899986 34.799877 17.799937 114.399594 43.499846 175.299378 2.199992 4.199985 8.49997 10.799962 11.799958 10.499963 25.699909-2.79999 51.399818-4.199985 77.199726-4.199985z m-88.799685-6.099978v0z m-74.099737-225.999199z m746.697353 46.999833c-14.799948 0-26.699905-11.999957-26.699906-26.699905 0-2.89999 0.499998-5.799979 1.399995-8.49997l0.899997-3.999986c0.299999-1.499995 0.599998-2.999989 0.799997-4.499984 0.599998-4.699983 0.599998-9.499966 0-14.19995-0.799997-7.499973-3.099989-14.799948-6.699976-21.399924-10.299963-18.899933-30.299893-30.499892-55.999801-32.799883l-2.599991-0.2-2.699991 0.2-4.599983 0.199999c-20.399928 0.599998-60.799784 0.499998-102.199638-7.199975-16.699941-2.89999-32.999883-7.599973-48.699827-13.99995-53.59981-23.399917-104.699629-34.299878-155.999447-33.299882-43.399846 0.799997-85.899695 10.099964-129.89954 28.499899l-3.899986 1.599994-3.299988 2.399992c-20.399928 14.19995-33.299882 23.299917-43.399847 30.099893-12.199957 8.299971-28.799898 4.999982-37.099868-7.199974-0.399999-0.599998-0.699998-1.099996-1.099996-1.699994C36.918959 417.802149 107.818708 165.203044 307.318001 53.103442 369.817779 18.003566 440.317529-0.296369 512.017275 0.00363c229.699186 0 416.698523 185.699342 416.698523 413.998532-0.1 118.49958-51.099819 231.19918-140.099504 309.598903-4.899983 4.299985-11.19996 6.599977-17.799936 6.699976z m-88.499687-165.799412c0.799997 0 1.499995 0 2.299992 0.1l4.599984 0.399998c43.499846 3.799987 79.399719 25.899908 98.199652 60.399786 2.69999 4.899983 4.999982 9.999965 6.899975 15.299946 52.199815-63.999773 80.799714-144.099489 80.899713-226.799196 0-198.799295-162.999422-360.498722-363.298712-360.498722S148.718563 215.202867 148.718563 414.002162c0 52.099815 11.39996 103.699632 33.299882 150.999465 5.199982-3.699987 11.099961-7.799972 17.799937-12.499956l5.799979-4.099985c1.599994-1.099996 3.299988-2.099993 5.099982-2.79999l6.599977-2.699991c50.399821-20.999926 99.299648-31.599888 149.599469-32.599884 58.299793-1.099996 118.299581 11.599959 178.199369 37.699866 11.999957 4.799983 24.399914 8.39997 37.199868 10.499963 29.999894 5.199982 60.399786 7.399974 90.799678 6.399977l3.199989-0.099999 4.699983-0.199999c0.399999-0.199999 0.799997-0.199999 1.299995-0.1z" p-id="8448"></path><path d="M451.817488 192.702947l60.199787 119.999574 60.199787-119.999574h56.599799l-76.599728 138.699508h50.999819v26.299907h-65.699767l-0.399999 0.399999v33.099882h66.199765v26.299907h-66.199765v59.699788h-50.199822v-59.699788h-65.699767v-26.299907h65.699767v-33.099882l-0.399999-0.399999h-65.299768v-26.299907h50.599821l-76.599729-138.699508h56.599799z" p-id="8449"></path></svg>