<?xml version="1.0" standalone="no"?><!DOCTYPE svg PUBLIC "-//W3C//DTD SVG 1.1//EN" "http://www.w3.org/Graphics/SVG/1.1/DTD/svg11.dtd"><svg t="1649054420319" class="icon" viewBox="0 0 1024 1024" version="1.1" xmlns="http://www.w3.org/2000/svg" p-id="7586" xmlns:xlink="http://www.w3.org/1999/xlink" width="128" height="128"><defs><style type="text/css">@font-face { font-family: feedback-iconfont; src: url("//at.alicdn.com/t/font_1031158_u69w8yhxdu.woff2?t=1630033759944") format("woff2"), url("//at.alicdn.com/t/font_1031158_u69w8yhxdu.woff?t=1630033759944") format("woff"), url("//at.alicdn.com/t/font_1031158_u69w8yhxdu.ttf?t=1630033759944") format("truetype"); }
</style></defs><path d="M577.5 659.9h-49.9v-33.2h49.9c9.2 0 16.6-7.4 16.6-16.6 0-9.2-7.4-16.6-16.6-16.6h-34.1l32.3-59.5c4.2-7.5 1.6-17.2-5.5-21.6-7.1-4.3-16.2-1.8-20.3 5.8l-37 68.4c-1.2 2.2-1.8 4.6-1.9 7h-0.2c-0.2-2.4-0.7-4.8-1.9-7l-36.6-68.3c-4.1-7.5-13.1-10.1-20.1-5.8-7 4.3-9.5 14.1-5.3 21.6l31.8 59.5h-34.1c-9.2 0-16.6 7.4-16.6 16.6 0 9.2 7.4 16.6 16.6 16.6h49.9V660h-49.9c-9.2 0-16.6 7.4-16.6 16.6 0 9.2 7.4 16.6 16.6 16.6h49.9V728c0 8.3 7.4 15 16.6 15 9.2 0 16.6-6.7 16.6-15v-34.8h49.9c9.2 0 16.6-7.4 16.6-16.6 0.1-9.3-7.5-16.7-16.7-16.7z m0 0" p-id="7587"></path><path d="M789.3 318.7c-0.8 0-1.5-0.2-2.2-0.2-3.3 0-6.5 0.6-9.6 1.9l-58.2 23.4v-79.6c0-12.9-10.5-23.4-23.4-23.4H664L576.5 98.7c-6.8-11-21.3-14.5-32.3-7.7L244.5 275.1c-11 6.8-14.5 21.3-7.7 32.3l8.5 13.8-1.8-0.7c-3.9-1.5-7.9-2.1-11.7-1.8-28.9 2.7-51.6 26.6-51.6 54.7v417.5c0 30.2 25.6 54.9 57 54.9h546.7c31.4 0 57-24.6 57-54.9V373.4c0-28.1-22.7-52-51.6-54.7zM554 125.2l71.4 115.5h-262L554 125.2zM367.6 273.6h318.8v83.3l-152.4 61c-15.1 6.1-31.8 6.1-47 0l-133.3-53.3v-90.9h13.9z m-46.9-6.4l-0.1 84.1-2.2-0.9L297 342l-27.2-43.6 50.9-31.2z m463.2 545.6H237.2c-19.2 0-24-11.2-23.9-22V373.4c0-13 11.3-25.2 29.7-17.6l232.6 93.1s24.4 6.7 37.1 6.3c16.3-0.5 31.5-6.5 38.7-9.3l225.5-90c16.3-7.1 31 0.4 31 17.6V791c0.1 7 0.1 22.3-24 21.8z m10-22" p-id="7588"></path><path d="M590.3 353H431.1c-9.1 0-16.5-7.4-16.5-16.5S422 320 431.1 320h159.2c9.1 0 16.5 7.4 16.5 16.5s-7.4 16.5-16.5 16.5z" p-id="7589"></path></svg>