<?xml version="1.0" standalone="no"?><!DOCTYPE svg PUBLIC "-//W3C//DTD SVG 1.1//EN" "http://www.w3.org/Graphics/SVG/1.1/DTD/svg11.dtd"><svg t="1649054322718" class="icon" viewBox="0 0 1024 1024" version="1.1" xmlns="http://www.w3.org/2000/svg" p-id="6731" xmlns:xlink="http://www.w3.org/1999/xlink" width="128" height="128"><defs><style type="text/css">@font-face { font-family: feedback-iconfont; src: url("//at.alicdn.com/t/font_1031158_u69w8yhxdu.woff2?t=1630033759944") format("woff2"), url("//at.alicdn.com/t/font_1031158_u69w8yhxdu.woff?t=1630033759944") format("woff"), url("//at.alicdn.com/t/font_1031158_u69w8yhxdu.ttf?t=1630033759944") format("truetype"); }
</style></defs><path d="M774.8224 109.9776l149.6448 86.4L793.6128 423.04a321.6896 321.6896 0 0 1 49.6128 172.16c0 178.496-144.704 323.2-323.2 323.2s-323.2-144.704-323.2-323.2c0-64.96 19.1744-125.4528 52.16-176.128L120.4224 196.3904l149.6448-86.4 4.8512 8.4096h495.0528l4.8512-8.4096zM520.0256 304c-160.8192 0-291.2 130.3808-291.2 291.2s130.3808 291.2 291.2 291.2c160.832 0 291.2-130.3808 291.2-291.2s-130.368-291.2-291.2-291.2zM339.072 684.16a202.5088 202.5088 0 0 0 92.8 92.3904 16 16 0 1 1-14.0288 28.7616 234.5088 234.5088 0 0 1-107.4816-107.0208 16 16 0 1 1 28.7104-14.144zM465.1904 467.2l60.224 60.1472 59.6736-59.6096c7.936-7.9232 20.736-8.0256 28.8-0.3072l0.3328 0.3328c7.9104 7.9232 8.0128 20.6976 0.2944 28.736l-0.3072 0.32-56.9216 56.832h52.4288a22.08 22.08 0 0 1 0 44.1856h-59.4048v27.6096h78.7456a22.08 22.08 0 0 1 0 44.1728h-78.7456v51.072c0 12.0576-9.6768 21.8752-21.696 22.0928h-0.4096c-12.0576 0-21.8752-9.6768-22.0928-21.7088v-51.456h-81.5104a22.0928 22.0928 0 0 1 0-44.1728h81.5104v-27.6096h-56.64a22.0928 22.0928 0 0 1 0-44.1728h44.0576l-57.4464-57.3824a20.544 20.544 0 0 1-0.0128-29.056l0.0128-0.0256a20.608 20.608 0 0 1 29.1072 0zM302.4256 579.2c8.832 0 16 7.168 16 16 0 11.0848 0.896 22.0416 2.6624 32.8192a16 16 0 0 1-31.5776 5.1584 235.136 235.136 0 0 1-3.072-37.9776c0-8.832 7.1552-16 16-16z m484.1088-425.5104l-96.256 166.7328a324.9024 324.9024 0 0 1 82.9568 73.9072l107.52-186.24-94.208-54.4z m-528.1792 0l-94.2208 54.4 105.4976 182.7456a324.8384 324.8384 0 0 1 83.7248-72.6016l-95.0016-164.544z m493.1328-3.3024H293.4016l88.1536 152.704a321.7664 321.7664 0 0 1 133.12-31.0528l5.3504-0.0384c51.0464 0 99.328 11.8272 142.2464 32.896l89.216-154.496z" p-id="6732"></path></svg>