<?xml version="1.0" standalone="no"?><!DOCTYPE svg PUBLIC "-//W3C//DTD SVG 1.1//EN" "http://www.w3.org/Graphics/SVG/1.1/DTD/svg11.dtd"><svg t="1649054072306" class="icon" viewBox="0 0 1024 1024" version="1.1" xmlns="http://www.w3.org/2000/svg" p-id="4621" xmlns:xlink="http://www.w3.org/1999/xlink" width="128" height="128"><defs><style type="text/css">@font-face { font-family: feedback-iconfont; src: url("//at.alicdn.com/t/font_1031158_u69w8yhxdu.woff2?t=1630033759944") format("woff2"), url("//at.alicdn.com/t/font_1031158_u69w8yhxdu.woff?t=1630033759944") format("woff"), url("//at.alicdn.com/t/font_1031158_u69w8yhxdu.ttf?t=1630033759944") format("truetype"); }
</style></defs><path d="M415.9 709.2h-68c-28.1 0-51-25-51-55.7V363.7c0-30.7 22.9-55.7 51-55.7h306c28.1 0 51 25 51 55.7v27.9c0 9.2 7.6 16.7 17 16.7s17-7.5 17-16.7v-27.9c0-49.1-38.1-89.1-85-89.1h-306c-46.9 0-85 40-85 89.1v289.8c0 49.2 38.2 89.1 85 89.1h68c9.4 0 17-7.5 17-16.7s-7.6-16.7-17-16.7z m-68-300.9c-9.4 0-17 7.5-17 16.7s7.6 16.7 17 16.7h136c9.4 0 17-7.5 17-16.7s-7.6-16.7-17-16.7h-136z m119 117c0-9.2-7.6-16.7-17-16.7h-102c-9.4 0-17 7.5-17 16.7s7.6 16.7 17 16.7h102c9.4 0.1 17-7.4 17-16.7z m204.2 47.8c25.7-18.2 42.4-47.9 42.4-81.3 0-55.3-45.8-100.3-102-100.3s-102 45-102 100.3c0 33.4 16.7 63.1 42.4 81.3-54.1 26.7-93.4 85.5-93.4 136 0 9.2 7.6 16.7 17 16.7s17-7.5 17-16.7c0-46.2 53.3-117 119-117s119 70.8 119 117c0 9.2 7.6 16.7 17 16.7s17-7.5 17-16.7c0-50.5-39.3-109.3-93.4-136z m-59.7-14.5c-37.5 0-68-30-68-66.9 0-36.9 30.5-66.9 68-66.9s68 30 68 66.9c0 37-30.4 66.9-68 66.9z m0 0" fill="#666666" p-id="4622"></path><path d="M415.9 749.7h-68c-50.7 0-92-43.1-92-96.1V363.7c0-53 41.3-96.1 92-96.1h306c50.7 0 92 43.1 92 96.1v27.9c0 13.1-10.8 23.7-24 23.7s-24-10.6-24-23.7v-27.9c0-26.9-19.7-48.7-44-48.7h-306c-24.3 0-44 21.8-44 48.7v289.8c0 26.9 19.7 48.7 44 48.7h68c13.2 0 24 10.6 24 23.7s-10.7 23.8-24 23.8z m-68-468.1c-43 0-78 36.8-78 82.1v289.8c0 45.3 35 82.1 78 82.1h68c5.5 0 10-4.4 10-9.7 0-5.4-4.5-9.7-10-9.7h-68c-32 0-58-28.1-58-62.7V363.7c0-34.6 26-62.7 58-62.7h306c32 0 58 28.1 58 62.7v27.9c0 5.4 4.5 9.7 10 9.7s10-4.4 10-9.7v-27.9c0-45.3-35-82.1-78-82.1h-306z m399.6 451.2c-13.2 0-24-10.6-24-23.7 0-21.3-13-49.3-33-71.1-13.3-14.5-41.3-38.9-79-38.9s-65.7 24.4-79 38.9c-20.1 21.9-33 49.8-33 71.1 0 13.1-10.8 23.7-24 23.7s-24-10.6-24-23.7c0-50.6 37.1-107.8 87.7-137.1-23.1-20.3-36.7-49.5-36.7-80.2 0-59.2 48.9-107.3 109-107.3s109 48.1 109 107.3c0 30.7-13.5 59.9-36.7 80.2 50.6 29.3 87.7 86.5 87.7 137.1 0 13.1-10.8 23.7-24 23.7zM611.4 585.1c31.9 0 63.6 15.4 89.3 43.4 22.6 24.7 36.7 55.6 36.7 80.6 0 5.4 4.5 9.7 10 9.7s10-4.4 10-9.7c0-48.8-38.5-104.6-89.5-129.7l-10.5-5.2 9.6-6.8c24.7-17.6 39.4-45.8 39.4-75.6 0-51.5-42.6-93.3-95-93.3s-95 41.9-95 93.3c0 29.8 14.7 58.1 39.4 75.6l9.6 6.8-10.5 5.2c-51 25.1-89.5 80.9-89.5 129.7 0 5.4 4.5 9.7 10 9.7s10-4.4 10-9.7c0-25 14.1-55.9 36.7-80.6 25.7-28 57.5-43.4 89.3-43.4z m0-19.5c-41.4 0-75-33.1-75-73.9s33.6-73.9 75-73.9 75 33.1 75 73.9-33.6 73.9-75 73.9z m0-133.7c-33.6 0-61 26.9-61 59.9s27.4 59.9 61 59.9 61-26.9 61-59.9-27.3-59.9-61-59.9zM449.9 549.1h-102c-13.2 0-24-10.6-24-23.7s10.8-23.7 24-23.7h102c13.2 0 24 10.6 24 23.7s-10.7 23.7-24 23.7z m-102-33.5c-5.5 0-10 4.4-10 9.7 0 5.4 4.5 9.7 10 9.7h102c5.5 0 10-4.4 10-9.7 0-5.4-4.5-9.7-10-9.7h-102z m136-66.9h-136c-13.2 0-24-10.6-24-23.7s10.8-23.7 24-23.7h136c13.2 0 24 10.6 24 23.7s-10.7 23.7-24 23.7z m-136-33.4c-5.5 0-10 4.4-10 9.7 0 5.4 4.5 9.7 10 9.7h136c5.5 0 10-4.4 10-9.7 0-5.4-4.5-9.7-10-9.7h-136z" fill="#666666" p-id="4623"></path></svg>