<?xml version="1.0" standalone="no"?><!DOCTYPE svg PUBLIC "-//W3C//DTD SVG 1.1//EN" "http://www.w3.org/Graphics/SVG/1.1/DTD/svg11.dtd"><svg t="1649054239845" class="icon" viewBox="0 0 1024 1024" version="1.1" xmlns="http://www.w3.org/2000/svg" p-id="5601" xmlns:xlink="http://www.w3.org/1999/xlink" width="128" height="128"><defs><style type="text/css">@font-face { font-family: feedback-iconfont; src: url("//at.alicdn.com/t/font_1031158_u69w8yhxdu.woff2?t=1630033759944") format("woff2"), url("//at.alicdn.com/t/font_1031158_u69w8yhxdu.woff?t=1630033759944") format("woff"), url("//at.alicdn.com/t/font_1031158_u69w8yhxdu.ttf?t=1630033759944") format("truetype"); }
</style></defs><path d="M356.6 128h330.5v128H356.6zM381.3 395.3h281.3v80H381.3zM381.3 572.4h281.3v80H381.3z" p-id="5602"></path><path d="M520.7 849.4H302.3c-29.1 0-52.7-23.6-52.7-52.7V283c0-29.1 23.6-52.7 52.7-52.7h439.3c29.1 0 52.7 23.6 52.7 52.7v251.6h80V283c0-73.2-59.5-132.7-132.7-132.7H302.3c-73.2 0-132.7 59.5-132.7 132.7v513.8c0 73.2 59.5 132.7 132.7 132.7h218.5v-80.1z" p-id="5603"></path><path d="M515 722.1l132 183 285.1-357-269.5 205.5L578 723z" p-id="5604"></path></svg>