<?xml version="1.0" standalone="no"?><!DOCTYPE svg PUBLIC "-//W3C//DTD SVG 1.1//EN" "http://www.w3.org/Graphics/SVG/1.1/DTD/svg11.dtd"><svg t="1649053925051" class="icon" viewBox="0 0 1024 1024" version="1.1" xmlns="http://www.w3.org/2000/svg" p-id="2453" xmlns:xlink="http://www.w3.org/1999/xlink" width="128" height="128"><defs><style type="text/css">@font-face { font-family: feedback-iconfont; src: url("//at.alicdn.com/t/font_1031158_u69w8yhxdu.woff2?t=1630033759944") format("woff2"), url("//at.alicdn.com/t/font_1031158_u69w8yhxdu.woff?t=1630033759944") format("woff"), url("//at.alicdn.com/t/font_1031158_u69w8yhxdu.ttf?t=1630033759944") format("truetype"); }
</style></defs><path d="M992 919.04h-64v-576c0-89.6-51.2-128-83.2-134.4l-204.8-64v-70.4c0-12.8-6.4-19.2-12.8-25.6s-19.2-6.4-25.6-6.4l-428.8 121.6S96 183.04 96 285.44v633.6H32c-19.2 0-32 12.8-32 32s12.8 32 32 32h960c19.2 0 32-12.8 32-32s-12.8-32-32-32z m-416 0H160v-633.6c0-44.8 25.6-57.6 32-57.6l384-108.8v800z m288 0H640v-710.4l185.6 64h6.4c6.4 0 32 6.4 32 70.4v576z m-524.8-646.4h-64v64h64v-64z m147.2 0h-64v64h64v-64z m-147.2 102.4h-64v64h64v-64z m147.2 0h-64v64h64v-64z m-147.2 108.8h-64v64h64v-64z m147.2 0h-64v64h64v-64z m-147.2 108.8h-64v64h64v-64z m147.2 0h-64v64h64v-64z m-147.2 102.4h-64v64h64v-64z m147.2 0h-64v64h64v-64z m-147.2 108.8h-64v64h64v-64z m147.2 0h-64v64h64v-64z m236.8-364.8h64v-64h-64v64z m0 108.8h64v-64h-64v64z m0 108.8h64v-64h-64v64z m0 102.4h64v-64h-64v64z m0 108.8h64v-64h-64v64z" p-id="2454"></path></svg>