<?xml version="1.0" standalone="no"?><!DOCTYPE svg PUBLIC "-//W3C//DTD SVG 1.1//EN" "http://www.w3.org/Graphics/SVG/1.1/DTD/svg11.dtd"><svg t="1650446870166" class="icon" viewBox="0 0 1024 1024" version="1.1" xmlns="http://www.w3.org/2000/svg" p-id="2862" xmlns:xlink="http://www.w3.org/1999/xlink" width="128" height="128"><defs><style type="text/css">@font-face { font-family: feedback-iconfont; src: url("//at.alicdn.com/t/font_1031158_u69w8yhxdu.woff2?t=1630033759944") format("woff2"), url("//at.alicdn.com/t/font_1031158_u69w8yhxdu.woff?t=1630033759944") format("woff"), url("//at.alicdn.com/t/font_1031158_u69w8yhxdu.ttf?t=1630033759944") format("truetype"); }
</style></defs><path d="M536 150.784l351.36 166.624a56 56 0 0 1 0 101.184l-351.36 166.624a56 56 0 0 1-48 0L136.64 418.592a56 56 0 0 1 0-101.184l351.36-166.624a56 56 0 0 1 48 0z m-20.576 43.36a8 8 0 0 0-6.848 0l-351.36 166.624a8 8 0 0 0 0 14.464l351.36 166.624a8 8 0 0 0 6.848 0l351.36-166.624a8 8 0 0 0 0-14.464l-351.36-166.624z" fill="#666666" p-id="2863"></path><path d="M866.784 519.232l-351.36 166.624a8 8 0 0 1-6.848 0l-351.36-166.624a24 24 0 0 0-20.576 43.36l351.36 166.624a56 56 0 0 0 48 0l351.36-166.624a24 24 0 0 0-20.576-43.36z" fill="#666666" p-id="2864"></path><path d="M866.784 663.232l-351.36 166.624a8 8 0 0 1-6.848 0l-351.36-166.624a24 24 0 0 0-20.576 43.36l351.36 166.624a56 56 0 0 0 48 0l351.36-166.624a24 24 0 0 0-20.576-43.36z" fill="#666666" p-id="2865"></path></svg>